<?xml version="1.0" encoding="utf-8"?>
<!-- Generator: Adobe Illustrator 17.1.0, SVG Export Plug-In . SVG Version: 6.00 Build 0)  -->
<!DOCTYPE svg PUBLIC "-//W3C//DTD SVG 1.1//EN" "http://www.w3.org/Graphics/SVG/1.1/DTD/svg11.dtd">
<svg version="1.1" id="Logo" xmlns="http://www.w3.org/2000/svg" xmlns:xlink="http://www.w3.org/1999/xlink" x="0px" y="0px"
	 viewBox="0 0 108.6 108.6" enable-background="new 0 0 108.6 108.6" xml:space="preserve">
<g>
	<path fill="#CB2027" d="M54.3,0C24.3,0,0,24.3,0,54.3c0,22.2,13.4,41.3,32.5,49.8c-0.2-3.8,0-8.3,0.9-12.5c1-4.4,7-29.6,7-29.6
		s-1.7-3.5-1.7-8.6c0-8,4.7-14.1,10.5-14.1c4.9,0,7.3,3.7,7.3,8.2c0,5-3.2,12.4-4.8,19.3c-1.4,5.8,2.9,10.5,8.6,10.5
		c10.3,0,17.2-13.2,17.2-28.9c0-11.9-8-20.8-22.6-20.8c-16.5,0-26.7,12.3-26.7,26c0,4.7,1.4,8.1,3.6,10.7c1,1.2,1.1,1.7,0.8,3
		c-0.3,1-0.9,3.4-1.1,4.4C31.1,73,30,73.5,28.7,73c-7.6-3.1-11.1-11.4-11.1-20.8c0-15.4,13-33.9,38.8-33.9c20.7,0,34.4,15,34.4,31.1
		c0,21.3-11.8,37.2-29.3,37.2c-5.9,0-11.4-3.2-13.3-6.8c0,0-3.2,12.5-3.8,14.9c-1.2,4.2-3.4,8.4-5.5,11.6c4.9,1.4,10,2.2,15.4,2.2
		c30,0,54.3-24.3,54.3-54.3C108.6,24.3,84.3,0,54.3,0z"/>
</g>
</svg>
